<?xml version="1.0" encoding="UTF-8"?><svg id="Illustration" xmlns="http://www.w3.org/2000/svg" viewBox="0 0 1080 1080"><defs><style>.cls-1{fill:none;stroke:#454646;stroke-linecap:round;stroke-linejoin:round;stroke-width:9.61px;}</style></defs><path class="cls-1" d="M539.86,614.01l294.75-294.75c3.55-3.55,3.55-9.31,0-12.86l-62.43-62.43c-3.55-3.55-9.31-3.55-12.86,0l-294.75,294.75"/><polygon class="cls-1" points="415.56 663.02 464.5 538.79 539.8 614.08 415.56 663.02"/><path class="cls-1" d="M378.01,663.02c-30.76.04-64.98.13-93.45,7.82-33.72,9.1-50.88,32.19-37,52.92,21.4,31.96,88.24,38.75,139.21,35.64,55.69-3.39,109.68-14.73,166.34-9.85,22.82,1.96,45.54,7.26,61.38,17.21,22.91,14.39,25.61,38.8,1.51,53.38-42.3,25.6-132.47,20.14-184.01,10.57"/></svg>